<?xml version="1.0" encoding="UTF-8"?>
<svg version="1.1" xmlns="http://www.w3.org/2000/svg" width="400" height="195">
<path d="M0 0 C1.05445313 0.60328125 2.10890625 1.2065625 3.1953125 1.828125 C8.18071449 4.84381776 12.43619974 8.01248087 16.3671875 12.32421875 C18.03767763 14.12256667 18.03767763 14.12256667 20.390625 15.80859375 C23.40760092 18.34231155 25.62700824 21.1743112 27.875 24.375 C28.30772217 24.99076904 28.74044434 25.60653809 29.1862793 26.2409668 C37.82785079 38.8278472 46.28677708 55.34977177 45.078125 71.1171875 C44.87883134 73.22863818 44.87883134 73.22863818 46 76 C47.78219332 98.58587304 39.63343331 120.30944685 25.24609375 137.4921875 C11.03439246 153.35986094 -6.30493716 162.6236247 -27 167 C-27.886875 167.19078125 -28.77375 167.3815625 -29.6875 167.578125 C-54.67695513 170.76074429 -78.4237292 166.28842422 -98.97265625 151.34375 C-119.14639093 135.72537477 -132.59707995 115.68296863 -136.3125 90.1875 C-136.56933656 87.79447478 -136.80172412 85.39858738 -137 83 C-137.0721875 82.17628906 -137.144375 81.35257812 -137.21875 80.50390625 C-138.14768929 58.17065745 -129.28745517 35.57171718 -114.75 18.8125 C-107.1031775 10.7560263 -107.1031775 10.7560263 -102 10 C-102 8.68 -102 7.36 -102 6 C-100.38590146 5.08768343 -98.77154098 4.17582865 -97.15625 3.265625 C-95.71549748 2.41996591 -94.29786957 1.53365964 -92.90625 0.609375 C-87.68927353 -2.78523298 -82.39878014 -5.16423049 -76.5625 -7.25 C-75.8833252 -7.4960498 -75.20415039 -7.74209961 -74.50439453 -7.99560547 C-49.43611738 -16.5929862 -22.63005 -13.05627816 0 0 Z M-98 10 C-98 10.66 -98 11.32 -98 12 C-97.175 12.12375 -96.35 12.2475 -95.5 12.375 C-80.28733768 15.09154684 -64.70786593 22.04340205 -55.25 34.6875 C-47.35893092 46.6709142 -43.95149646 59.18982468 -46.6484375 73.421875 C-49.75469335 84.51943865 -55.02232777 92.85450577 -64 100 C-64 100.66 -64 101.32 -64 102 C-64.6909375 102.25910156 -65.381875 102.51820312 -66.09375 102.78515625 C-69.34947012 104.14608227 -72.38653279 105.77722219 -75.5 107.4375 C-82.15848098 110.89159816 -88.5972381 112.60170053 -96 114 C-96 119.28 -96 124.56 -96 130 C-86.1 130 -76.2 130 -66 130 C-65.71079094 124.1214612 -65.71079094 124.1214612 -65.43188477 118.24243164 C-65.39377686 117.51403076 -65.35566895 116.78562988 -65.31640625 116.03515625 C-65.26141968 114.91185913 -65.26141968 114.91185913 -65.20532227 113.76586914 C-65 112 -65 112 -64 111 C-61.48143825 110.84013054 -58.98635826 110.74058106 -56.46484375 110.68359375 C-55.79747192 110.66494263 -55.1301001 110.6462915 -54.44250488 110.6270752 C-51.94097583 110.55859259 -49.43922118 110.49856213 -46.9375 110.4375 C-38.5534375 110.2209375 -38.5534375 110.2209375 -30 110 C-30 94.49 -30 78.98 -30 63 C-33.63 62.34 -37.26 61.68 -41 61 C-40.4265064 53.73574774 -39.20783916 46.93652089 -37.4375 39.875 C-37.08655273 38.44027344 -37.08655273 38.44027344 -36.72851562 36.9765625 C-36.15839759 34.64955012 -35.58006779 32.32455211 -35 30 C-30.71 30 -26.42 30 -22 30 C-19.79731695 35.66496491 -17.93709681 41.33208007 -16.3125 47.1875 C-16.08755859 47.96802734 -15.86261719 48.74855469 -15.63085938 49.55273438 C-14.54092609 53.45860473 -13.69613951 56.90198956 -14 61 C-14.62648438 61.06058594 -15.25296875 61.12117188 -15.8984375 61.18359375 C-17.12433594 61.30927734 -17.12433594 61.30927734 -18.375 61.4375 C-19.59316406 61.55931641 -19.59316406 61.55931641 -20.8359375 61.68359375 C-23.04272805 61.89090114 -23.04272805 61.89090114 -25 63 C-25 70.92 -25 78.84 -25 87 C-14.77 87 -4.54 87 6 87 C6.33 80.4 6.66 73.8 7 67 C17.89 67 28.78 67 40 67 C37.65783616 52.94701697 33.79821916 41.82950195 26 30 C25.40832031 29.03900391 25.40832031 29.03900391 24.8046875 28.05859375 C23.93166882 26.66499726 22.97549644 25.32388802 22 24 C21.34 24 20.68 24 20 24 C19.731875 23.360625 19.46375 22.72125 19.1875 22.0625 C18.11332248 19.66868314 18.11332248 19.66868314 15 19 C14.32652202 17.67009412 13.66089264 16.33620475 13 15 C-1.87457886 0.09410624 -24.10870244 -7.17627046 -44.75 -7.3125 C-62.17045945 -7.32481708 -85.36561884 -3.42402998 -98 10 Z M-105 16 C-105.33 16.99 -105.66 17.98 -106 19 C-107.32990588 19.67347798 -108.66379525 20.33910736 -110 21 C-124.85977414 35.82855613 -131.601827 57.44692766 -132.04345703 78.02490234 C-131.97533318 94.58701208 -126.99023441 108.74483447 -119 123 C-118.27490234 124.29744141 -118.27490234 124.29744141 -117.53515625 125.62109375 C-113.43305506 132.29146698 -107.75946758 137.75074079 -102 143 C-101.67 143 -101.34 143 -101 143 C-101 133.76 -101 124.52 -101 115 C-102.65 114.34 -104.3 113.68 -106 113 C-106.495 112.01 -106.495 112.01 -107 111 C-104.03 110.505 -104.03 110.505 -101 110 C-100.67 85.25 -100.34 60.5 -100 35 C-98.68 35 -97.36 35 -96 35 C-96 59.42 -96 83.84 -96 109 C-84.37579336 107.70842148 -75.23536501 104.18107685 -66 97 C-65.38511719 96.52304688 -64.77023438 96.04609375 -64.13671875 95.5546875 C-55.52868937 87.95824472 -51.20058685 76.55731252 -50.08984375 65.375 C-49.76411869 53.13906748 -53.94796871 42.23880456 -62 33 C-74.47797571 21.44145408 -88.21428633 16.95823956 -105 16 Z M-33 34 C-33.67332993 37.08191704 -34.33748859 40.1657408 -35 43.25 C-35.28617187 44.55904297 -35.28617187 44.55904297 -35.578125 45.89453125 C-35.75859375 46.73886719 -35.9390625 47.58320312 -36.125 48.453125 C-36.29257813 49.22817383 -36.46015625 50.00322266 -36.6328125 50.80175781 C-37.10983617 53.28610674 -37.10983617 53.28610674 -37 57 C-34.04200997 58.47899501 -31.3516424 58.13178874 -28.0625 58.125 C-26.19271484 58.12886719 -26.19271484 58.12886719 -24.28515625 58.1328125 C-20.99323703 58.15199431 -20.99323703 58.15199431 -18 57 C-18.63490385 51.90754205 -19.65052159 47.0730875 -21 42.125 C-21.17789063 41.44953125 -21.35578125 40.7740625 -21.5390625 40.078125 C-22.23605211 36.76551303 -22.23605211 36.76551303 -24 34 C-25.51928038 33.92820036 -27.04167482 33.91607993 -28.5625 33.9375 C-29.80193359 33.95103516 -29.80193359 33.95103516 -31.06640625 33.96484375 C-32.02353516 33.98224609 -32.02353516 33.98224609 -33 34 Z M11 72 C10.71079094 77.8785388 10.71079094 77.8785388 10.43188477 83.75756836 C10.39377686 84.48596924 10.35566895 85.21437012 10.31640625 85.96484375 C10.27974854 86.7137085 10.24309082 87.46257324 10.20532227 88.23413086 C10 90 10 90 9 91 C6.48143825 91.15986946 3.98635826 91.25941894 1.46484375 91.31640625 C0.79747192 91.33505737 0.1301001 91.3537085 -0.55749512 91.3729248 C-3.05902417 91.44140741 -5.56077882 91.50143787 -8.0625 91.5625 C-13.651875 91.706875 -19.24125 91.85125 -25 92 C-25 110.15 -25 128.3 -25 147 C-21.04 147.99 -17.08 148.98 -13 150 C-10.98881985 151.31640882 -8.98497852 152.64440491 -7 154 C5.80368489 152.73230843 16.98096011 139.73945321 24.90234375 130.64453125 C37.10144066 115.26503664 41.51071676 95.92881568 40.97265625 76.58203125 C41 74 41 74 42 72 C31.77 72 21.54 72 11 72 Z M-61 115 C-61.33 121.27 -61.66 127.54 -62 134 C-73.22 134.33 -84.44 134.66 -96 135 C-96 139.29 -96 143.58 -96 148 C-82.73365393 155.52954777 -68.63645352 163 -53 163 C-52.4121875 161.39125 -52.4121875 161.39125 -51.8125 159.75 C-50.23224944 156.07016771 -48.36878438 154.24585625 -45 152 C-44.278125 151.46375 -43.55625 150.9275 -42.8125 150.375 C-40 149 -40 149 -30 147 C-30 136.44 -30 125.88 -30 115 C-40.23 115 -50.46 115 -61 115 Z M-45 157 C-47.45262958 159.63442624 -47.45262958 159.63442624 -48 163 C-35.49692123 163.62864642 -23.71520327 161.31612752 -12 157 C-12 156.34 -12 155.68 -12 155 C-22.63517699 149.68241151 -35.44811598 149.07892545 -45 157 Z " fill="#000066" transform="translate(147,19)"/>
<path d="M0 0 C4.42709376 7.0494141 3.29181517 17.92202544 3 26 C2.95746094 27.19302734 2.95746094 27.19302734 2.9140625 28.41015625 C2.61618159 32.65850548 2.42565868 34.48472896 -0.375 37.875 C-2.39607098 40.87267515 -2.39607098 40.87267515 -1.1484375 43.8125 C0.13052679 46.61336035 1.4912457 49.31670912 3 52 C2.34 52.66 1.68 53.32 1 54 C0.01 54 -0.98 54 -2 54 C-2.83848804 52.54462432 -3.67063934 51.08559627 -4.5 49.625 C-4.9640625 48.81289062 -5.428125 48.00078125 -5.90625 47.1640625 C-7 45 -7 45 -7 43 C-10.96 43 -14.92 43 -19 43 C-19 46.3 -19 49.6 -19 53 C-20.98 53.495 -20.98 53.495 -23 54 C-24.28233558 51.43532885 -24.12703853 49.61131278 -24.12939453 46.73999023 C-24.13254669 45.64222763 -24.13569885 44.54446503 -24.13894653 43.41343689 C-24.1369223 42.22383865 -24.13489807 41.03424042 -24.1328125 39.80859375 C-24.13376923 38.59301285 -24.13472595 37.37743195 -24.13571167 36.12501526 C-24.13639312 33.55184884 -24.13454128 30.97868071 -24.13037109 28.40551758 C-24.12501779 24.45064464 -24.13031968 20.49588503 -24.13671875 16.54101562 C-24.13605805 14.04687475 -24.13477707 11.55273394 -24.1328125 9.05859375 C-24.13483673 7.86697128 -24.13686096 6.67534882 -24.13894653 5.44761658 C-24.13579437 4.35300613 -24.13264221 3.25839569 -24.12939453 2.13061523 C-24.12859894 1.16179916 -24.12780334 0.19298309 -24.12698364 -0.80519104 C-24 -3 -24 -3 -23 -4 C-14.53227545 -5.51209367 -6.87138406 -5.86581566 0 0 Z M-19 1 C-19 13.21 -19 25.42 -19 38 C-9.03974938 38.83924806 -9.03974938 38.83924806 -4.8515625 36.37890625 C-1.80126744 30.81243953 -2.28049219 25.17186549 -2.375 18.9375 C-2.35566406 17.65810547 -2.33632813 16.37871094 -2.31640625 15.06054688 C-2.32285156 13.83271484 -2.32929688 12.60488281 -2.3359375 11.33984375 C-2.34157715 10.21956787 -2.3472168 9.09929199 -2.35302734 7.94506836 C-2.80081738 4.90427428 -2.80081738 4.90427428 -4.85400391 2.60375977 C-9.04481256 0.16735655 -9.04481256 0.16735655 -19 1 Z " fill="#000000" transform="translate(322,41)"/>
<path d="M0 0 C1.79244141 0.01740234 1.79244141 0.01740234 3.62109375 0.03515625 C5.41740234 0.04869141 5.41740234 0.04869141 7.25 0.0625 C8.17683594 0.07410156 9.10367188 0.08570312 10.05859375 0.09765625 C11.49026091 3.44607926 12.47018112 6.60061432 13.12890625 10.1796875 C13.28633301 11.01991455 13.44375977 11.8601416 13.60595703 12.72583008 C13.89188721 14.30207153 13.89188721 14.30207153 14.18359375 15.91015625 C14.80234375 19.27203125 15.42109375 22.63390625 16.05859375 26.09765625 C16.38859375 18.17765625 16.71859375 10.25765625 17.05859375 2.09765625 C18.37859375 2.09765625 19.69859375 2.09765625 21.05859375 2.09765625 C21.05859375 20.57765625 21.05859375 39.05765625 21.05859375 58.09765625 C19.73859375 58.09765625 18.41859375 58.09765625 17.05859375 58.09765625 C14.15480322 47.28469238 12.0359555 36.32666748 9.87109375 25.34765625 C9.49961973 23.47520668 9.127877 21.6028104 8.75585938 19.73046875 C7.85367352 15.18680598 6.95512064 10.64243885 6.05859375 6.09765625 C3.08859375 5.60265625 3.08859375 5.60265625 0.05859375 5.09765625 C0.05859375 22.58765625 0.05859375 40.07765625 0.05859375 58.09765625 C-1.26140625 58.09765625 -2.58140625 58.09765625 -3.94140625 58.09765625 C-3.96453508 50.68305683 -3.9823241 43.26846514 -3.99321842 35.85383701 C-3.99844607 32.41125277 -4.00554156 28.96869313 -4.0168457 25.52612305 C-4.0297486 21.57210582 -4.03463543 17.61809869 -4.0390625 13.6640625 C-4.04422379 12.42241837 -4.04938507 11.18077423 -4.05470276 9.90150452 C-4.05477829 8.76039719 -4.05485382 7.61928986 -4.05493164 6.44360352 C-4.05715225 5.43322525 -4.05937286 4.42284698 -4.06166077 3.3818512 C-3.87932997 -0.08146219 -3.52656482 0.11708383 0 0 Z " fill="#000000" transform="translate(216.94140625,99.90234375)"/>
<path d="M0 0 C4.06138765 3.93446929 5.16799071 8.44147713 5.35644531 13.9230957 C5.36267342 15.81983749 5.35242166 17.71668486 5.328125 19.61328125 C5.32625183 20.61965134 5.32437866 21.62602142 5.32244873 22.66288757 C5.31575428 24.77830343 5.30189204 26.89370746 5.28125 29.0090332 C5.24993454 32.25678939 5.24025931 35.5040605 5.234375 38.75195312 C5.22521073 40.80990179 5.2148368 42.8678455 5.203125 44.92578125 C5.19675018 46.38664909 5.19675018 46.38664909 5.19024658 47.87702942 C5.18063904 48.77523911 5.17103149 49.67344879 5.16113281 50.59887695 C5.15430481 51.39050735 5.14747681 52.18213776 5.14044189 52.99775696 C5 54.9375 5 54.9375 4 56.9375 C2.68 56.6075 1.36 56.2775 0 55.9375 C0 52.6375 0 49.3375 0 45.9375 C-5.28 45.9375 -10.56 45.9375 -16 45.9375 C-16 49.2375 -16 52.5375 -16 55.9375 C-17.98 56.4325 -17.98 56.4325 -20 56.9375 C-22.17182357 54.76567643 -21.31014296 49.77210172 -21.38671875 46.75 C-21.41224319 45.81833008 -21.43776764 44.88666016 -21.46406555 43.92675781 C-21.51620796 41.94619424 -21.56561827 39.9655572 -21.61254883 37.98486328 C-21.68651006 34.97774907 -21.77739405 31.97146066 -21.86914062 28.96484375 C-21.91771561 27.03908867 -21.96527283 25.1133076 -22.01171875 23.1875 C-22.04077805 22.29651611 -22.06983734 21.40553223 -22.09977722 20.48754883 C-22.24007713 13.39158372 -22.10512936 6.58240612 -17.5625 0.875 C-12.48507094 -2.73922906 -5.59550227 -1.98174039 0 0 Z M-14.20214844 5.48144531 C-16.62216117 8.78743772 -16.50650701 11.61106963 -16.390625 15.546875 C-16.38496521 16.27368469 -16.37930542 17.00049438 -16.37347412 17.74932861 C-16.35114553 20.06273245 -16.30096048 22.3745672 -16.25 24.6875 C-16.22993023 26.25909216 -16.21168029 27.83070868 -16.1953125 29.40234375 C-16.15469859 33.24848138 -16.07641572 37.09124213 -16 40.9375 C-10.72 40.9375 -5.44 40.9375 0 40.9375 C0.06913113 36.7742696 0.1287798 32.61305555 0.16479492 28.44970703 C0.17981825 27.03557563 0.20024305 25.62149032 0.22631836 24.20751953 C0.26298954 22.16687603 0.27979036 20.12685208 0.29296875 18.0859375 C0.3086792 16.86052246 0.32438965 15.63510742 0.34057617 14.37255859 C-0.03611951 10.57319786 -1.01055214 8.17636102 -3 4.9375 C-6.79639992 3.03930004 -10.71764376 3.03842895 -14.20214844 5.48144531 Z " fill="#000000" transform="translate(291,38.0625)"/>
<path d="M0 0 C4.17979999 1.839112 5.59132575 3.57448862 8.125 7.375 C9.44131077 12.44969045 9.30886574 17.47960022 9.3125 22.6875 C9.32474609 23.59951172 9.33699219 24.51152344 9.34960938 25.45117188 C9.36501783 32.61610214 9.23119828 39.80460188 4.125 45.375 C4.49753906 45.98988281 4.87007813 46.60476562 5.25390625 47.23828125 C5.72699219 48.04652344 6.20007813 48.85476562 6.6875 49.6875 C7.16316406 50.48800781 7.63882812 51.28851563 8.12890625 52.11328125 C9.125 54.375 9.125 54.375 8.125 57.375 C6.805 57.375 5.485 57.375 4.125 57.375 C2.7734375 55.1875 2.7734375 55.1875 1.5 52.375 C0.09016902 49.58162451 0.09016902 49.58162451 -1.875 47.375 C-5.34755973 46.49126474 -8.36975943 46.75153824 -11.875 47.375 C-11.854375 48.65375 -11.83375 49.9325 -11.8125 51.25 C-11.75 55.125 -11.75 55.125 -12.875 57.375 C-14.195 57.375 -15.515 57.375 -16.875 57.375 C-16.875 38.565 -16.875 19.755 -16.875 0.375 C-12.02080915 -2.05209543 -5.18508028 -0.83630327 0 0 Z M-11.875 4.375 C-11.875 16.915 -11.875 29.455 -11.875 42.375 C-2.56548222 43.37933778 -2.56548222 43.37933778 1.1875 40.0625 C5.02579312 34.73841599 4.34396434 29.31575741 4.375 23 C4.395625 21.9584375 4.41625 20.916875 4.4375 19.84375 C4.62905483 12.53957961 4.62905483 12.53957961 1.125 6.375 C-3.47128479 3.70417961 -3.47128479 3.70417961 -11.875 4.375 Z " fill="#000000" transform="translate(380.875,100.625)"/>
<path d="M0 0 C3.78344893 2.89796088 5.5957425 5.50059716 7 10 C7.20052458 12.82463379 7.3041465 15.5475391 7.30078125 18.37109375 C7.30506638 19.17104263 7.3093515 19.97099152 7.31376648 20.79518127 C7.31949279 22.48201555 7.3200226 24.1688745 7.31567383 25.85571289 C7.31251448 28.42572462 7.33599104 30.99458355 7.36132812 33.56445312 C7.36360148 35.20833189 7.36430444 36.85221373 7.36328125 38.49609375 C7.372491 39.2587706 7.38170074 40.02144745 7.39118958 40.80723572 C7.34022568 46.73243739 5.8863317 50.75998111 2 55.375 C-2.57660528 57.85399452 -6.90930348 57.75786309 -12 57 C-16.18686402 54.69295248 -17.61493716 52.48365597 -19 48 C-19.29485725 45.06282767 -19.3041072 42.14163446 -19.30078125 39.19140625 C-19.30506638 38.34706528 -19.3093515 37.5027243 -19.31376648 36.63279724 C-19.3194946 34.85180557 -19.32002125 33.0707905 -19.31567383 31.28979492 C-19.31251449 28.57494948 -19.33598918 25.86119521 -19.36132812 23.14648438 C-19.36360145 21.4114597 -19.36430446 19.67643211 -19.36328125 17.94140625 C-19.372491 17.13498184 -19.38170074 16.32855743 -19.39118958 15.49769592 C-19.3512102 10.59257944 -18.67669784 7.26729994 -16 3 C-11.08840182 -1.45113585 -6.2026664 -1.59154533 0 0 Z M-14 9 C-14.70253845 11.96773734 -14.65488921 14.84074194 -14.59375 17.87890625 C-14.59379028 18.72799057 -14.59383057 19.57707489 -14.59387207 20.45188904 C-14.58852525 22.24135772 -14.5709782 24.03082646 -14.54199219 25.82006836 C-14.50008103 28.55720803 -14.50093027 31.29188991 -14.5078125 34.02929688 C-14.49732115 35.77085041 -14.48438334 37.51239128 -14.46875 39.25390625 C-14.46854858 40.07065323 -14.46834717 40.88740021 -14.46813965 41.72889709 C-14.39870028 45.06460151 -14.25294276 47.54353134 -12.61914062 50.49194336 C-10.4228639 52.53754066 -8.98597032 52.85781094 -6 53 C-2.80124377 52.23839137 -1.40226398 51.51731753 0.62353516 48.91210938 C2.35707867 45.24454871 2.43176048 42.00458705 2.3984375 38.03125 C2.40130768 37.27332153 2.40417786 36.51539307 2.40713501 35.73449707 C2.40916966 34.1376063 2.40368177 32.54069026 2.39111328 30.94384766 C2.3750499 28.50756803 2.39098109 26.07294713 2.41015625 23.63671875 C2.40817371 22.08072553 2.40432981 20.52473333 2.3984375 18.96875 C2.40451019 18.24465942 2.41058289 17.52056885 2.4168396 16.77453613 C2.35559784 12.34347651 1.74389979 9.51025771 -1 6 C-6.79177189 2.13881874 -9.85808683 3.71565173 -14 9 Z " fill="#000000" transform="translate(354,101)"/>
<path d="M0 0 C4.17979999 1.839112 5.59132575 3.57448862 8.125 7.375 C9.54873835 12.16556616 9.30883592 17.17117 9.3125 22.125 C9.32474609 22.9809375 9.33699219 23.836875 9.34960938 24.71875 C9.36585763 31.86798245 9.3487434 39.91381372 4.125 45.375 C4.49753906 45.98988281 4.87007813 46.60476562 5.25390625 47.23828125 C5.72699219 48.04652344 6.20007813 48.85476562 6.6875 49.6875 C7.16316406 50.48800781 7.63882812 51.28851563 8.12890625 52.11328125 C9.125 54.375 9.125 54.375 8.125 57.375 C6.805 57.375 5.485 57.375 4.125 57.375 C3.90328125 56.73691406 3.6815625 56.09882813 3.453125 55.44140625 C2.25011741 52.64746472 1.19586273 50.61949334 -0.875 48.375 C-4.90150043 47.27543551 -8.72005344 47.20933227 -12.875 47.375 C-12.875 50.675 -12.875 53.975 -12.875 57.375 C-14.195 57.375 -15.515 57.375 -16.875 57.375 C-16.875 38.565 -16.875 19.755 -16.875 0.375 C-12.02080915 -2.05209543 -5.18508028 -0.83630327 0 0 Z M-12.875 4.375 C-12.875 16.915 -12.875 29.455 -12.875 42.375 C-2.70078008 43.46554551 -2.70078008 43.46554551 1.25 40.0625 C4.99137964 34.69985585 4.3440235 29.30371752 4.375 23 C4.395625 21.9584375 4.41625 20.916875 4.4375 19.84375 C4.62905483 12.53957961 4.62905483 12.53957961 1.125 6.375 C-3.62035599 3.62964401 -3.62035599 3.62964401 -12.875 4.375 Z " fill="#000000" transform="translate(315.875,100.625)"/>
<path d="M0 0 C3.4733615 2.84184122 5.19869144 5.30245834 6.0625 9.6875 C6.31171121 13.6008712 6.29369659 17.51698939 6.3125 21.4375 C6.333125 22.49710938 6.35375 23.55671875 6.375 24.6484375 C6.41208688 32.12144409 6.0979049 38.57426421 0.625 44.1875 C-4.54714557 46.3652455 -9.40249393 46.00992754 -14.9375 45.6875 C-14.9375 48.9875 -14.9375 52.2875 -14.9375 55.6875 C-16.9175 56.1825 -16.9175 56.1825 -18.9375 56.6875 C-19.9375 55.6875 -19.9375 55.6875 -20.05775452 53.40330505 C-20.05553391 52.39292679 -20.05331329 51.38254852 -20.05102539 50.34155273 C-20.05094986 49.2004454 -20.05087433 48.05933807 -20.05079651 46.88365173 C-20.04563522 45.6420076 -20.04047394 44.40036346 -20.03515625 43.12109375 C-20.0337413 41.85733414 -20.03232635 40.59357452 -20.03086853 39.29151917 C-20.02620582 35.92625111 -20.0172148 32.5610501 -20.00616455 29.19580078 C-19.99594846 25.7640033 -19.99137049 22.33219891 -19.98632812 18.90039062 C-19.9752738 12.16274176 -19.9585171 5.42512475 -19.9375 -1.3125 C-12.9865635 -2.35773829 -6.555411 -2.92901342 0 0 Z M-14.9375 3.6875 C-14.9375 15.8975 -14.9375 28.1075 -14.9375 40.6875 C-4.91448598 41.72918298 -4.91448598 41.72918298 -1.3125 38.875 C2.00785331 33.59261973 1.2841554 27.84281426 1.3125 21.8125 C1.333125 20.72324219 1.35375 19.63398437 1.375 18.51171875 C1.38015625 17.45855469 1.3853125 16.40539062 1.390625 15.3203125 C1.3999707 14.36012207 1.40931641 13.39993164 1.41894531 12.41064453 C0.99622547 9.18118073 -0.03504833 7.30843692 -1.9375 4.6875 C-5.20460519 2.86760841 -5.20460519 2.86760841 -14.9375 3.6875 Z " fill="#000000" transform="translate(224.9375,38.3125)"/>
<path d="M0 0 C1.05445313 -0.00257812 2.10890625 -0.00515625 3.1953125 -0.0078125 C5.875 0.125 5.875 0.125 7.875 1.125 C7.545 2.445 7.215 3.765 6.875 5.125 C5.55435547 5.19847656 5.55435547 5.19847656 4.20703125 5.2734375 C2.46486328 5.38558594 2.46486328 5.38558594 0.6875 5.5 C-1.03533203 5.60441406 -1.03533203 5.60441406 -2.79296875 5.7109375 C-5.95195794 6.10349653 -8.2968932 6.68768064 -11.125 8.125 C-12.38338557 10.64177113 -12.33318973 12.53793288 -12.44140625 15.3515625 C-12.48330078 16.3828125 -12.52519531 17.4140625 -12.56835938 18.4765625 C-12.62733398 20.09691406 -12.62733398 20.09691406 -12.6875 21.75 C-12.73068359 22.83796875 -12.77386719 23.9259375 -12.81835938 25.046875 C-12.92464427 27.7394257 -13.02534504 30.43219576 -13.125 33.125 C-8.175 33.125 -3.225 33.125 1.875 33.125 C1.875 34.445 1.875 35.765 1.875 37.125 C-3.075 37.125 -8.025 37.125 -13.125 37.125 C-13.00125 39.043125 -12.8775 40.96125 -12.75 42.9375 C-12.64558594 44.55591797 -12.64558594 44.55591797 -12.5390625 46.20703125 C-12.31304267 49.31126186 -12.31304267 49.31126186 -10.125 52.125 C-5.51626307 53.94056303 -0.02684673 53.50977158 4.85546875 53.74609375 C5.85191406 53.87113281 6.84835937 53.99617188 7.875 54.125 C8.205 54.785 8.535 55.445 8.875 56.125 C8.545 56.785 8.215 57.445 7.875 58.125 C4.83182614 58.26058695 1.79474438 58.35937239 -1.25 58.4375 C-2.1059375 58.47939453 -2.961875 58.52128906 -3.84375 58.56445312 C-8.19335058 58.64809929 -11.19467114 58.57077468 -14.6796875 55.79296875 C-18.75996636 51.3411629 -18.29911341 47.03159172 -18.328125 41.29296875 C-18.33382507 40.42360184 -18.33952515 39.55423492 -18.34539795 38.65852356 C-18.35484278 36.81850398 -18.36137988 34.97846752 -18.36523438 33.13842773 C-18.37492737 30.33351856 -18.4059501 27.52934621 -18.4375 24.72460938 C-18.44403168 22.93490017 -18.4492815 21.14518574 -18.453125 19.35546875 C-18.4654718 18.52089645 -18.4778186 17.68632416 -18.49053955 16.82646179 C-18.47165077 11.84987087 -17.89597907 8.43195714 -15.125 4.125 C-10.23557871 0.48927647 -5.98123556 -0.01469591 0 0 Z " fill="#000000" transform="translate(288.125,99.875)"/>
<path d="M0 0 C0.99 0.33 1.98 0.66 3 1 C3 18.49 3 35.98 3 54 C8.28 54 13.56 54 19 54 C19 50.7 19 47.4 19 44 C20.98 43.505 20.98 43.505 23 43 C24 44 24 44 24.1328125 47.125 C24.13023437 48.40375 24.12765625 49.6825 24.125 51 C24.12886719 52.918125 24.12886719 52.918125 24.1328125 54.875 C24 58 24 58 23 59 C21.23140807 59.09946453 19.45888549 59.13080217 17.6875 59.1328125 C16.61242187 59.13410156 15.53734375 59.13539062 14.4296875 59.13671875 C13.29789062 59.13285156 12.16609375 59.12898438 11 59.125 C9.86820313 59.12886719 8.73640625 59.13273437 7.5703125 59.13671875 C6.49523437 59.13542969 5.42015625 59.13414063 4.3125 59.1328125 C3.31863281 59.13168457 2.32476562 59.13055664 1.30078125 59.12939453 C-1 59 -1 59 -2 58 C-2.09370624 56.22008076 -2.11744271 54.43643261 -2.11352539 52.65405273 C-2.11344986 51.5129454 -2.11337433 50.37183807 -2.11329651 49.19615173 C-2.10813522 47.9545076 -2.10297394 46.71286346 -2.09765625 45.43359375 C-2.0962413 44.16983414 -2.09482635 42.90607452 -2.09336853 41.60401917 C-2.08870582 38.23875111 -2.0797148 34.8735501 -2.06866455 31.50830078 C-2.05844846 28.0765033 -2.05387049 24.64469891 -2.04882812 21.21289062 C-2.0377738 14.47524176 -2.0210171 7.73762475 -2 1 C-1.34 0.67 -0.68 0.34 0 0 Z " fill="#000000" transform="translate(243,36)"/>
<path d="M0 0 C1.00023193 0.00523682 2.00046387 0.01047363 3.03100586 0.01586914 C4.1105957 0.0190918 5.19018555 0.02231445 6.30249023 0.02563477 C8.00695312 0.03820312 8.00695312 0.03820312 9.74584961 0.05102539 C11.45611328 0.05779297 11.45611328 0.05779297 13.20092773 0.06469727 C16.02845312 0.07652792 18.85587601 0.09301129 21.68334961 0.11352539 C22.24584961 2.05102539 22.24584961 2.05102539 22.68334961 4.11352539 C22.35334961 4.44352539 22.02334961 4.77352539 21.68334961 5.11352539 C18.38334961 5.11352539 15.08334961 5.11352539 11.68334961 5.11352539 C11.68334961 22.60352539 11.68334961 40.09352539 11.68334961 58.11352539 C10.36334961 58.11352539 9.04334961 58.11352539 7.68334961 58.11352539 C7.68334961 40.62352539 7.68334961 23.13352539 7.68334961 5.11352539 C4.38334961 5.11352539 1.08334961 5.11352539 -2.31665039 5.11352539 C-2.64665039 3.79352539 -2.97665039 2.47352539 -3.31665039 1.11352539 C-2.31665039 0.11352539 -2.31665039 0.11352539 0 0 Z " fill="#000000" transform="translate(244.316650390625,99.886474609375)"/>
<path d="M0 0 C1.98 0.495 1.98 0.495 4 1 C4 19.81 4 38.62 4 58 C2.35 58 0.7 58 -1 58 C-1.02312883 50.58540058 -1.04091785 43.17080889 -1.05181217 35.75618076 C-1.05703982 32.31359652 -1.06413531 28.87103688 -1.07543945 25.4284668 C-1.08834235 21.47444957 -1.09322918 17.52044244 -1.09765625 13.56640625 C-1.10281754 12.32476212 -1.10797882 11.08311798 -1.11329651 9.80384827 C-1.11337204 8.66274094 -1.11344757 7.52163361 -1.11352539 6.34594727 C-1.115746 5.335569 -1.11796661 4.32519073 -1.12025452 3.28419495 C-1 1 -1 1 0 0 Z " fill="#000000" transform="translate(328,100)"/>
<path d="M0 0 C0.99 0.33 1.98 0.66 3 1 C3 19.81 3 38.62 3 58 C1.02 58.495 1.02 58.495 -1 59 C-2.70301242 57.29698758 -2.13626608 55.10637023 -2.14526367 52.77758789 C-2.15164352 51.6629567 -2.15802338 50.5483255 -2.16459656 49.3999176 C-2.16570938 48.18642136 -2.1668222 46.97292511 -2.16796875 45.72265625 C-2.17129715 44.48583603 -2.17462555 43.24901581 -2.17805481 41.97471619 C-2.1831293 39.35269545 -2.18546298 36.73066822 -2.18530273 34.10864258 C-2.18522129 31.41293658 -2.19218657 28.71739981 -2.20581055 26.02172852 C-2.22405346 22.15115102 -2.22903586 18.28077233 -2.23046875 14.41015625 C-2.23765427 13.19868423 -2.24483978 11.98721222 -2.25224304 10.73902893 C-2.24916641 9.62124557 -2.24608978 8.50346222 -2.24291992 7.35180664 C-2.24434494 6.36443008 -2.24576996 5.37705353 -2.24723816 4.35975647 C-2 2 -2 2 0 0 Z " fill="#000000" transform="translate(235,36)"/>
<path d="M0 0 C0.99 0 1.98 0 3 0 C4.28566729 2.57133459 4.12009778 4.397171 4.11352539 7.27587891 C4.11344986 8.3768692 4.11337433 9.4778595 4.11329651 10.61221313 C4.10813522 11.80494843 4.10297394 12.99768372 4.09765625 14.2265625 C4.0962413 15.44451508 4.09482635 16.66246765 4.09336853 17.91732788 C4.08775639 21.8199099 4.07520179 25.72243523 4.0625 29.625 C4.05748657 32.26562417 4.05292339 34.90624924 4.04882812 37.546875 C4.03778301 44.03126945 4.02103302 50.51563068 4 57 C1.525 57.495 1.525 57.495 -1 58 C-1.02312883 50.58540058 -1.04091785 43.17080889 -1.05181217 35.75618076 C-1.05703982 32.31359652 -1.06413531 28.87103688 -1.07543945 25.4284668 C-1.08834235 21.47444957 -1.09322918 17.52044244 -1.09765625 13.56640625 C-1.10281754 12.32476212 -1.10797882 11.08311798 -1.11329651 9.80384827 C-1.11337204 8.66274094 -1.11344757 7.52163361 -1.11352539 6.34594727 C-1.115746 5.335569 -1.11796661 4.32519073 -1.12025452 3.28419495 C-1 1 -1 1 0 0 Z " fill="#000000" transform="translate(206,100)"/>
<path d="M0 0 C0.4640625 0.9590625 0.4640625 0.9590625 0.9375 1.9375 C1.8345163 3.93610821 1.8345163 3.93610821 3 5 C3.14115161 7.67058851 3.04247107 10.32432238 3 13 C3.66 13 4.32 13 5 13 C4.67 10.36 4.34 7.72 4 5 C4.99 4.67 5.98 4.34 7 4 C7 6.97 7 9.94 7 13 C7.66 13 8.32 13 9 13 C8.505 6.565 8.505 6.565 8 0 C8.99 0 9.98 0 11 0 C11 4.29 11 8.58 11 13 C11.66 13 12.32 13 13 13 C13 13.66 13 14.32 13 15 C11.20866022 15.05391993 9.41686101 15.09275571 7.625 15.125 C6.62726563 15.14820313 5.62953125 15.17140625 4.6015625 15.1953125 C2 15 2 15 0 13 C-0.40047444 10.67724823 -0.7397104 8.34260643 -1 6 C-1.99 6 -2.98 6 -4 6 C-3.67 8.97 -3.34 11.94 -3 15 C-4.97909398 15.02686553 -6.95828971 15.04633375 -8.9375 15.0625 C-10.03964844 15.07410156 -11.14179688 15.08570313 -12.27734375 15.09765625 C-15 15 -15 15 -16 14 C-16.23481693 11.81707226 -16.41363323 9.62796826 -16.5625 7.4375 C-16.64628906 6.23996094 -16.73007813 5.04242188 -16.81640625 3.80859375 C-16.87699219 2.88175781 -16.93757812 1.95492187 -17 1 C-16.01 1 -15.02 1 -14 1 C-14 2.32 -14 3.64 -14 5 C-12.02 4.67 -10.04 4.34 -8 4 C-8 6.97 -8 9.94 -8 13 C-7.34 13 -6.68 13 -6 13 C-6.185625 11.7625 -6.37125 10.525 -6.5625 9.25 C-6.94711223 6.23720423 -7.0874594 3.89989173 -6 1 C-3.92446352 0.4465236 -2.15634036 0 0 0 Z M-4 3 C-4 3.66 -4 4.32 -4 5 C-3.34 5 -2.68 5 -2 5 C-2 4.34 -2 3.68 -2 3 C-2.66 3 -3.32 3 -4 3 Z M-14 6 C-14 8.31 -14 10.62 -14 13 C-13.01 12.67 -12.02 12.34 -11 12 C-11 10.02 -11 8.04 -11 6 C-11.99 6 -12.98 6 -14 6 Z " fill="#000066" transform="translate(261,162)"/>
<path d="M0 0 C1.32 0 2.64 0 4 0 C4 1.65 4 3.3 4 5 C5.32 4.67 6.64 4.34 8 4 C8 6.97 8 9.94 8 13 C8.66 13 9.32 13 10 13 C9.67 10.36 9.34 7.72 9 5 C9.99 4.67 10.98 4.34 12 4 C12.66 4.33 13.32 4.66 14 5 C13.67 3.68 13.34 2.36 13 1 C13.99 1 14.98 1 16 1 C16 2.32 16 3.64 16 5 C16.66 5.33 17.32 5.66 18 6 C17.34 6 16.68 6 16 6 C16.33 7.98 16.66 9.96 17 12 C17.66 12 18.32 12 19 12 C18.979375 10.9275 18.95875 9.855 18.9375 8.75 C18.9857984 5.85209576 19.13155885 3.71387859 20 1 C20.66 1 21.32 1 22 1 C22.495 7.93 22.495 7.93 23 15 C20 15 17 15 14 15 C12.845 15.04125 11.69 15.0825 10.5 15.125 C7 15 7 15 5 13 C5 13.66 5 14.32 5 15 C3.35 15 1.7 15 0 15 C0 10.05 0 5.1 0 0 Z M13 6 C13 8.31 13 10.62 13 13 C13.33 13 13.66 13 14 13 C14 10.69 14 8.38 14 6 C13.67 6 13.34 6 13 6 Z " fill="#000066" transform="translate(347,162)"/>
<path d="M0 0 C0 1.65 0 3.3 0 5 C-0.66 5 -1.32 5 -2 5 C-2 4.34 -2 3.68 -2 3 C-2.99 3.495 -2.99 3.495 -4 4 C-2.35 4.99 -0.7 5.98 1 7 C1.66 6.34 2.32 5.68 3 5 C6.5625 4.8125 6.5625 4.8125 10 5 C11 6 11 6 11.25 9.4375 C11.1675 10.613125 11.085 11.78875 11 13 C8 15 8 15 4.9375 14.625 C3.968125 14.41875 2.99875 14.2125 2 14 C-0.26441842 13.94140312 -0.26441842 13.94140312 -3.5 14.625 C-5.2325 14.810625 -5.2325 14.810625 -7 15 C-7.66 14.34 -8.32 13.68 -9 13 C-8.625 10.875 -8.625 10.875 -8 9 C-6.68 9 -5.36 9 -4 9 C-3.67 9.99 -3.34 10.98 -3 12 C-3 11.01 -3 10.02 -3 9 C-5.4390706 6.79857668 -5.4390706 6.79857668 -8 5 C-7.625 3.0625 -7.625 3.0625 -7 1 C-4.53721199 -0.231394 -2.7204945 -0.07159196 0 0 Z M4 6 C3.32041397 8.39719432 3.32041397 8.39719432 3 11 C3.66 11.66 4.32 12.32 5 13 C7.10820797 12.6814823 7.10820797 12.6814823 9 12 C8.67 10.35 8.34 8.7 8 7 C6.68 6.67 5.36 6.34 4 6 Z " fill="#000066" transform="translate(336,162)"/>
<path d="M0 0 C0 2.97 0 5.94 0 9 C0.66 9 1.32 9 2 9 C1.67 6.36 1.34 3.72 1 1 C3.33294775 0.95758277 5.66702567 0.95907063 8 1 C10.16090886 3.16090886 9.72400131 8.2005847 10 11 C5.38 11 0.76 11 -4 11 C-4 8.36 -4 5.72 -4 3 C-4.66 5.64 -5.32 8.28 -6 11 C-6.99 11 -7.98 11 -9 11 C-9.99 7.7 -10.98 4.4 -12 1 C-10.68 1.33 -9.36 1.66 -8 2 C-7.67 1.67 -7.34 1.34 -7 1 C-1.66666667 0 -1.66666667 0 0 0 Z M5 2 C3.64381501 3.12534105 3.64381501 3.12534105 3.9375 6.0625 C3.958125 7.031875 3.97875 8.00125 4 9 C4.99 9 5.98 9 7 9 C6.67 6.69 6.34 4.38 6 2 C5.67 2 5.34 2 5 2 Z " fill="#000066" transform="translate(303,166)"/>
<path d="M0 0 C2.31 0.33 4.62 0.66 7 1 C7.33 4.3 7.66 7.6 8 11 C1.375 11.125 1.375 11.125 -2 10 C-2.99 10.185625 -3.98 10.37125 -5 10.5625 C-8 11 -8 11 -11 9 C-11.3125 6 -11.3125 6 -11 3 C-9 1 -9 1 -6 0.75 C-3 1 -3 1 -1 3 C-0.67 2.01 -0.34 1.02 0 0 Z M-8 2 C-8.33 2.99 -8.66 3.98 -9 5 C-7.02 5 -5.04 5 -3 5 C-3.66 4.01 -4.32 3.02 -5 2 C-5.99 2 -6.98 2 -8 2 Z M2 6 C2 6.99 2 7.98 2 9 C2.99 8.67 3.98 8.34 5 8 C5 7.34 5 6.68 5 6 C4.01 6 3.02 6 2 6 Z M-8 7 C-7.67 7.66 -7.34 8.32 -7 9 C-5.02 8.67 -3.04 8.34 -1 8 C-1 7.67 -1 7.34 -1 7 C-3.31 7 -5.62 7 -8 7 Z " fill="#000066" transform="translate(227,166)"/>
<path d="M0 0 C0.0745172 3.87489459 0.02961921 7.26763038 -1 11 C-1 12.32 -1 13.64 -1 15 C-2 16 -2 16 -5.0625 16.0625 C-6.031875 16.041875 -7.00125 16.02125 -8 16 C-8.82638376 13.10765685 -9 11.11257569 -9 8 C-9.103125 7.154375 -9.20625 6.30875 -9.3125 5.4375 C-9 3 -9 3 -6.75 1.1875 C-4 0 -4 0 0 0 Z M-6 3 C-6.33 3.99 -6.66 4.98 -7 6 C-6.67 6.66 -6.34 7.32 -6 8 C-5.01 8 -4.02 8 -3 8 C-3.33 6.35 -3.66 4.7 -4 3 C-4.66 3 -5.32 3 -6 3 Z M-4 12 C-3 14 -3 14 -3 14 Z " fill="#000066" transform="translate(322,165)"/>
<path d="M0 0 C2.64 0 5.28 0 8 0 C9.59138085 4.17737474 10.21278058 7.53160785 10 12 C6.22639456 14.32221873 4.98800589 14 0 14 C0 9.38 0 4.76 0 0 Z M3 1 C3 1.99 3 2.98 3 4 C3.99 4 4.98 4 6 4 C5.67 3.01 5.34 2.02 5 1 C4.34 1 3.68 1 3 1 Z M3 6 C3 7.98 3 9.96 3 12 C4.98491642 11.73323796 4.98491642 11.73323796 7 11 C7.33 10.01 7.66 9.02 8 8 C7.67 7.34 7.34 6.68 7 6 C5.68 6 4.36 6 3 6 Z " fill="#000066" transform="translate(205,163)"/>
<path d="M0 0 C1.65 0 3.3 0 5 0 C4.01 0.495 4.01 0.495 3 1 C3 4.63 3 8.26 3 12 C3.99 12 4.98 12 6 12 C6 11.34 6 10.68 6 10 C6.66 10 7.32 10 8 10 C7.979375 9.0925 7.95875 8.185 7.9375 7.25 C7.9889755 4.57327412 8.2215017 2.53011948 9 0 C9.99 0.33 10.98 0.66 12 1 C12 5.29 12 9.58 12 14 C8.04 14 4.08 14 0 14 C0 9.38 0 4.76 0 0 Z " fill="#000066" transform="translate(279,163)"/>
<path d="M0 0 C1.7325 0.1546875 1.7325 0.1546875 3.5 0.3125 C5.5 3.3125 5.5 3.3125 5.3125 5.875 C4.5 8.3125 4.5 8.3125 1.5 10.3125 C-1.6875 9.9375 -1.6875 9.9375 -4.5 9.3125 C-5.125 5.9375 -5.125 5.9375 -5.5 2.3125 C-3.5 0.3125 -3.5 0.3125 0 0 Z M-1.5 1.3125 C-2.16 2.6325 -2.82 3.9525 -3.5 5.3125 C-2.51 6.7975 -2.51 6.7975 -1.5 8.3125 C-0.18 7.9825 1.14 7.6525 2.5 7.3125 C2.17 5.6625 1.84 4.0125 1.5 2.3125 C0.51 1.9825 -0.48 1.6525 -1.5 1.3125 Z " fill="#000066" transform="translate(375.5,166.6875)"/>
<path d="M0 0 C2.33294775 -0.04241723 4.66702567 -0.04092937 7 0 C9.16090886 2.16090886 8.72400131 7.2005847 9 10 C6.03 10 3.06 10 0 10 C0 6.7 0 3.4 0 0 Z M4 1 C2.64381501 2.12534105 2.64381501 2.12534105 2.9375 5.0625 C2.958125 6.031875 2.97875 7.00125 3 8 C3.99 8 4.98 8 6 8 C6 6.02 6 4.04 6 2 C5.34 1.67 4.68 1.34 4 1 Z " fill="#000066" transform="translate(381,167)"/>
<path d="M0 0 C0.33 2.64 0.66 5.28 1 8 C1.33 8 1.66 8 2 8 C2 5.69 2 3.38 2 1 C2.99 0.67 3.98 0.34 5 0 C5.33 3.63 5.66 7.26 6 11 C3.125 11.125 3.125 11.125 0 11 C-3.00617269 7.99382731 -2.59585316 5.17618402 -3 1 C-1 0 -1 0 0 0 Z " fill="#000066" transform="translate(238,166)"/>
<path d="M0 0 C0.99 0 1.98 0 3 0 C2.67 0.99 2.34 1.98 2 3 C1.34 2.67 0.68 2.34 0 2 C0 1.34 0 0.68 0 0 Z " fill="#000066" transform="translate(300,163)"/>
<path d="M0 0 C0.99 0 1.98 0 3 0 C2.67 0.99 2.34 1.98 2 3 C1.34 2.67 0.68 2.34 0 2 C0 1.34 0 0.68 0 0 Z " fill="#000066" transform="translate(250,163)"/>
</svg>
